<svg xmlns="http://www.w3.org/2000/svg" viewBox="0 0 512 512" width="512" height="512">
  <defs>
    <linearGradient id="bg" x1="0" y1="0" x2="1" y2="1">
      <stop offset="0" stop-color="#1c1c22"/>
      <stop offset="1" stop-color="#07070a"/>
    </linearGradient>
    <linearGradient id="ring" x1="0" y1="0" x2="1" y2="1">
      <stop offset="0" stop-color="#ffd66b"/>
      <stop offset="1" stop-color="#ff9f1a"/>
    </linearGradient>
  </defs>
  <rect width="512" height="512" rx="112" fill="url(#bg)"/>
  <rect x="88" y="152" width="336" height="232" rx="44" fill="#15151b" stroke="#2a2a33" stroke-width="6"/>
  <rect x="196" y="112" width="120" height="52" rx="22" fill="#15151b" stroke="#2a2a33" stroke-width="6"/>
  <circle cx="256" cy="268" r="92" fill="#0b0b0f" stroke="url(#ring)" stroke-width="14"/>
  <circle cx="256" cy="268" r="58" fill="#101018" stroke="#3a3a46" stroke-width="4"/>
  <circle cx="256" cy="268" r="26" fill="#ffb84d"/>
  <circle cx="236" cy="248" r="8" fill="#fff4d6" opacity="0.9"/>
  <path d="M120 200 h40 M120 200 v40 M392 200 h-40 M392 200 v40 M120 336 h40 M120 336 v-40 M392 336 h-40 M392 336 v-40" stroke="#ffb84d" stroke-width="10" stroke-linecap="round" fill="none"/>
  <circle cx="372" cy="186" r="9" fill="#52d273"/>
</svg>
